{
  "accessors": [
    {
      "bufferView": 1,
      "componentType": 5126,
      "count": 65532,
      "max": [
        16.53196144104004,
        0.8678889870643616,
        16.21506690979004
      ],
      "min": [
        -10.815763473510742,
        -22.96463394165039,
        -10.587469100952148
      ],
      "type": "VEC3"
    },
    {
      "bufferView": 1,
      "byteOffset": 786384,
      "componentType": 5126,
      "count": 65532,
      "max": [
        0.999142587184906,
        0.9613876342773438,
        0.9999021887779236
      ],
      "min": [
        -0.9998211860656738,
        -1.0,
        -0.9999966621398926
      ],
      "type": "VEC3"
    },
    {
      "bufferView": 2,
      "componentType": 5126,
      "count": 65532,
      "max": [
        0.9921568632125854,
        0.9764705896377563,
        0.9019607901573181,
        1.0
      ],
      "min": [
        0.05882352963089943,
        0.03921568766236305,
        0.0470588244497776,
        1.0
      ],
      "type": "VEC4"
    },
    {
      "bufferView": 0,
      "componentType": 5125,
      "count": 331299,
      "type": "SCALAR"
    },
    {
      "bufferView": 1,
      "byteOffset": 1572768,
      "componentType": 5126,
      "count": 65532,
      "max": [
        16.576595306396484,
        -0.003449999960139394,
        11.421706199645996
      ],
      "min": [
        -2.854862928390503,
        -22.976943969726563,
        -10.551406860351563
      ],
      "type": "VEC3"
    },
    {
      "bufferView": 1,
      "byteOffset": 2359152,
      "componentType": 5126,
      "count": 65532,
      "max": [
        0.9994634389877319,
        0.8429383635520935,
        0.9994440078735352
      ],
      "min": [
        -0.9992607235908508,
        -0.9999743700027466,
        -0.998614490032196
      ],
      "type": "VEC3"
    },
    {
      "bufferView": 2,
      "byteOffset": 1048512,
      "componentType": 5126,
      "count": 65532,
      "max": [
        0.9921568632125854,
        0.95686274766922,
        0.8392156958580017,
        1.0
      ],
      "min": [
        0.07450980693101883,
        0.06666667014360428,
        0.05882352963089943,
        1.0
      ],
      "type": "VEC4"
    },
    {
      "bufferView": 0,
      "byteOffset": 1325196,
      "componentType": 5125,
      "count": 335373,
      "type": "SCALAR"
    },
    {
      "bufferView": 1,
      "byteOffset": 3145536,
      "componentType": 5126,
      "count": 65532,
      "max": [
        10.322195053100586,
        0.5766909718513489,
        11.4694185256958
      ],
      "min": [
        -10.474212646484375,
        -22.596187591552734,
        -10.826286315917969
      ],
      "type": "VEC3"
    },
    {
      "bufferView": 1,
      "byteOffset": 3931920,
      "componentType": 5126,
      "count": 65532,
      "max": [
        0.9963142275810242,
        0.9206576943397522,
        0.9994696974754333
      ],
      "min": [
        -0.9987635016441345,
        -0.9999895691871643,
        -0.9996619820594788
      ],
      "type": "VEC3"
    },
    {
      "bufferView": 2,
      "byteOffset": 2097024,
      "componentType": 5126,
      "count": 65532,
      "max": [
        0.9921568632125854,
        0.95686274766922,
        0.8745098114013672,
        1.0
      ],
      "min": [
        0.10980392247438431,
        0.08627451211214066,
        0.08627451211214066,
        1.0
      ],
      "type": "VEC4"
    },
    {
      "bufferView": 0,
      "byteOffset": 2666688,
      "componentType": 5125,
      "count": 332388,
      "type": "SCALAR"
    },
    {
      "bufferView": 1,
      "byteOffset": 4718304,
      "componentType": 5126,
      "count": 65532,
      "max": [
        16.590377807617188,
        0.8711259961128235,
        16.21506690979004
      ],
      "min": [
        -10.718017578125,
        -16.397855758666992,
        -12.369267463684082
      ],
      "type": "VEC3"
    },
    {
      "bufferView": 1,
      "byteOffset": 5504688,
      "componentType": 5126,
      "count": 65532,
      "max": [
        0.9999133348464966,
        0.9482269287109375,
        0.9999080896377563
      ],
      "min": [
        -0.9998382925987244,
        -0.9999986886978149,
        -0.9997959136962891
      ],
      "type": "VEC3"
    },
    {
      "bufferView": 2,
      "byteOffset": 3145536,
      "componentType": 5126,
      "count": 65532,
      "max": [
        0.9921568632125854,
        0.9764705896377563,
        0.9098039269447327,
        1.0
      ],
      "min": [
        0.05882352963089943,
        0.03921568766236305,
        0.0470588244497776,
        1.0
      ],
      "type": "VEC4"
    },
    {
      "bufferView": 0,
      "byteOffset": 3996240,
      "componentType": 5125,
      "count": 309081,
      "type": "SCALAR"
    },
    {
      "bufferView": 1,
      "byteOffset": 6291072,
      "componentType": 5126,
      "count": 65532,
      "max": [
        17.777090072631836,
        0.8706169724464417,
        11.469573974609375
      ],
      "min": [
        -5.015113830566406,
        -22.963254928588867,
        -12.050374984741211
      ],
      "type": "VEC3"
    },
    {
      "bufferView": 1,
      "byteOffset": 7077456,
      "componentType": 5126,
      "count": 65532,
      "max": [
        0.9999133348464966,
        0.9923807382583618,
        0.9995154738426208
      ],
      "min": [
        -0.9964757561683655,
        -0.9999976754188538,
        -0.9998037815093994
      ],
      "type": "VEC3"
    },
    {
      "bufferView": 2,
      "byteOffset": 4194048,
      "componentType": 5126,
      "count": 65532,
      "max": [
        0.9921568632125854,
        0.9372549057006836,
        0.8470588326454163,
        1.0
      ],
      "min": [
        0.07450980693101883,
        0.0470588244497776,
        0.054901961237192154,
        1.0
      ],
      "type": "VEC4"
    },
    {
      "bufferView": 0,
      "byteOffset": 5232564,
      "componentType": 5125,
      "count": 262443,
      "type": "SCALAR"
    },
    {
      "bufferView": 1,
      "byteOffset": 7863840,
      "componentType": 5126,
      "count": 22830,
      "max": [
        17.704952239990234,
        0.8658729791641235,
        10.735135078430176
      ],
      "min": [
        -10.825742721557617,
        -3.1851589679718018,
        -12.369267463684082
      ],
      "type": "VEC3"
    },
    {
      "bufferView": 1,
      "byteOffset": 8137800,
      "componentType": 5126,
      "count": 22830,
      "max": [
        0.9997549057006836,
        0.9570125341415405,
        0.9994012117385864
      ],
      "min": [
        -0.9998543858528137,
        -0.9999988079071045,
        -0.9999557137489319
      ],
      "type": "VEC3"
    },
    {
      "bufferView": 2,
      "byteOffset": 5242560,
      "componentType": 5126,
      "count": 22830,
      "max": [
        0.9921568632125854,
        0.95686274766922,
        0.8745098114013672,
        1.0
      ],
      "min": [
        0.07450980693101883,
        0.054901961237192154,
        0.0470588244497776,
        1.0
      ],
      "type": "VEC4"
    },
    {
      "bufferView": 0,
      "byteOffset": 6282336,
      "componentType": 5125,
      "count": 73902,
      "type": "SCALAR"
    }
  ],
  "asset": {
    "extras": {
      "author": "Austin Beaulier (https://sketchfab.com/Austin.Beaulier)",
      "license": "CC-BY-4.0 (http://creativecommons.org/licenses/by/4.0/)",
      "source": "https://sketchfab.com/3d-models/hieroglyph-stone-pyramid-7a770008f6734b43bae9305100b73894",
      "title": "Hieroglyph Stone Pyramid"
    },
    "generator": "Sketchfab-12.68.0",
    "version": "2.0"
  },
  "bufferViews": [
    {
      "buffer": 0,
      "byteLength": 6577944,
      "name": "floatBufferViews",
      "target": 34963
    },
    {
      "buffer": 0,
      "byteLength": 8411760,
      "byteOffset": 6577944,
      "byteStride": 12,
      "name": "floatBufferViews",
      "target": 34962
    },
    {
      "buffer": 0,
      "byteLength": 5607840,
      "byteOffset": 14989704,
      "byteStride": 16,
      "name": "floatBufferViews",
      "target": 34962
    }
  ],
  "buffers": [
    {
      "byteLength": 20597544,
      "uri": "scene.bin"
    }
  ],
  "materials": [
    {
      "doubleSided": true,
      "name": "material_0",
      "pbrMetallicRoughness": {
        "metallicFactor": 0.0,
        "roughnessFactor": 0.6
      }
    }
  ],
  "meshes": [
    {
      "name": "Object_0",
      "primitives": [
        {
          "attributes": {
            "COLOR_0": 2,
            "NORMAL": 1,
            "POSITION": 0
          },
          "indices": 3,
          "material": 0,
          "mode": 4
        }
      ]
    },
    {
      "name": "Object_1",
      "primitives": [
        {
          "attributes": {
            "COLOR_0": 6,
            "NORMAL": 5,
            "POSITION": 4
          },
          "indices": 7,
          "material": 0,
          "mode": 4
        }
      ]
    },
    {
      "name": "Object_2",
      "primitives": [
        {
          "attributes": {
            "COLOR_0": 10,
            "NORMAL": 9,
            "POSITION": 8
          },
          "indices": 11,
          "material": 0,
          "mode": 4
        }
      ]
    },
    {
      "name": "Object_3",
      "primitives": [
        {
          "attributes": {
            "COLOR_0": 14,
            "NORMAL": 13,
            "POSITION": 12
          },
          "indices": 15,
          "material": 0,
          "mode": 4
        }
      ]
    },
    {
      "name": "Object_4",
      "primitives": [
        {
          "attributes": {
            "COLOR_0": 18,
            "NORMAL": 17,
            "POSITION": 16
          },
          "indices": 19,
          "material": 0,
          "mode": 4
        }
      ]
    },
    {
      "name": "Object_5",
      "primitives": [
        {
          "attributes": {
            "COLOR_0": 22,
            "NORMAL": 21,
            "POSITION": 20
          },
          "indices": 23,
          "material": 0,
          "mode": 4
        }
      ]
    }
  ],
  "nodes": [
    {
      "children": [
        1
      ],
      "matrix": [
        0.0,
        2.220446049250313e-16,
        -1.0,
        0.0,
        0.0,
        -1.0,
        -2.220446049250313e-16,
        0.0,
        -1.0,
        0.0,
        0.0,
        0.0,
        5.398481845855713,
        -9.130094528198246,
        14.528576850891112,
        1.0
      ],
      "name": "Sketchfab_model"
    },
    {
      "children": [
        2,
        3,
        4,
        5,
        6,
        7
      ],
      "name": "pyramid.obj.cleaner.materialmerger.gles"
    },
    {
      "mesh": 0,
      "name": "Object_2"
    },
    {
      "mesh": 1,
      "name": "Object_3"
    },
    {
      "mesh": 2,
      "name": "Object_4"
    },
    {
      "mesh": 3,
      "name": "Object_5"
    },
    {
      "mesh": 4,
      "name": "Object_6"
    },
    {
      "mesh": 5,
      "name": "Object_7"
    }
  ],
  "scene": 0,
  "scenes": [
    {
      "name": "Sketchfab_Scene",
      "nodes": [
        0
      ]
    }
  ]
}
