<svg fill="none" height="24" viewBox="0 0 24 24" width="24" xmlns="http://www.w3.org/2000/svg"><path d="m13.2978 2.11468c-.2914-.05129-.5478.18125-.5478.47717v2.86077c0 .19836.1209.37302.2859.48321.5032.33619.8341.91014.8341 1.56323v2c0 1.03004-.84 1.88004-1.87 1.88004-1.04 0-1.88-.85-1.88-1.88004v-2c0-.65328.3383-1.22738.8439-1.56352.1652-.10982.2861-.28456.2861-.48292v-2.86013c0-.29615-.2565-.52879-.5481-.47736-1.54947.27321-2.93611 1.01814-4.0019 2.08393-1.36 1.36-2.2 3.24-2.2 5.3v5.00004c0 4.13 3.37 7.5 7.5 7.5s7.5-3.37 7.5-7.5v-5.00004c0-3.69049-2.687-6.76578-6.2022-7.38438z" fill="#2b2d42"/></svg>